<?xml version="1.0" encoding="UTF-8"?>
<!DOCTYPE svg PUBLIC "-//W3C//DTD SVG 1.1//EN" "http://www.w3.org/Graphics/SVG/1.1/DTD/svg11.dtd">
<svg xmlns="http://www.w3.org/2000/svg" version="1.1" width="356px" height="234px" style="shape-rendering:geometricPrecision; text-rendering:geometricPrecision; image-rendering:optimizeQuality; fill-rule:evenodd; clip-rule:evenodd" xmlns:xlink="http://www.w3.org/1999/xlink">
<g><path style="opacity:1" fill="#fcfcfc" d="M -0.5,-0.5 C 118.167,-0.5 236.833,-0.5 355.5,-0.5C 355.5,77.5 355.5,155.5 355.5,233.5C 236.833,233.5 118.167,233.5 -0.5,233.5C -0.5,155.5 -0.5,77.5 -0.5,-0.5 Z"/></g>
<g><path style="opacity:1" fill="#e8fdfc" d="M 221.5,23.5 C 220.728,22.3065 219.728,21.3065 218.5,20.5C 210.966,12.8672 201.966,10.7006 191.5,14C 188.408,14.8536 185.741,16.3536 183.5,18.5C 183.5,16.5 183.5,14.5 183.5,12.5C 186.833,11.3 190.167,11.3 193.5,12.5C 196.177,12.2506 198.51,11.2506 200.5,9.5C 204.236,11.1825 208.236,12.0159 212.5,12C 214.973,13.5615 216.973,15.5615 218.5,18C 219.448,18.4828 220.448,18.6495 221.5,18.5C 221.5,20.1667 221.5,21.8333 221.5,23.5 Z"/></g>
<g><path style="opacity:1" fill="#66bcc7" d="M 218.5,20.5 C 217.167,20.5 216.5,21.1667 216.5,22.5C 215.317,21.4955 213.984,20.6622 212.5,20C 214.301,19.6827 214.634,19.016 213.5,18C 202.024,12.417 191.691,13.917 182.5,22.5C 179.965,28.856 178.965,35.5227 179.5,42.5C 183.5,42.5 187.5,42.5 191.5,42.5C 188.833,43.1667 186.167,43.8333 183.5,44.5C 181.833,44.5 180.167,44.5 178.5,44.5C 178.334,38.8236 178.501,33.1569 179,27.5C 179.454,23.9248 180.954,20.9248 183.5,18.5C 185.741,16.3536 188.408,14.8536 191.5,14C 201.966,10.7006 210.966,12.8672 218.5,20.5 Z"/></g>
<g><path style="opacity:1" fill="#44c1d0" d="M 216.5,22.5 C 217.301,24.0418 217.634,25.7085 217.5,27.5C 216.399,26.1516 215.399,24.6516 214.5,23C 213.035,22.3987 212.035,22.8987 211.5,24.5C 212.995,29.8499 214.329,35.1832 215.5,40.5C 214.5,40.5 213.5,40.5 212.5,40.5C 212.5,38.1667 212.5,35.8333 212.5,33.5C 210.876,33.3601 209.71,34.0267 209,35.5C 206.984,34.2527 205.151,32.9194 203.5,31.5C 204.833,31.5 206.167,31.5 207.5,31.5C 208.461,29.7354 208.795,27.7354 208.5,25.5C 205.891,25.1699 204.224,23.6699 203.5,21C 201.22,20.7674 199.22,19.934 197.5,18.5C 197.222,20.9488 196.555,23.6155 195.5,26.5C 193.744,27.5521 193.077,29.2188 193.5,31.5C 194.335,32.9432 195.668,33.9432 197.5,34.5C 195.696,35.7681 193.696,36.4348 191.5,36.5C 191.5,37.5 191.5,38.5 191.5,39.5C 195.846,39.3343 200.179,39.501 204.5,40C 205.056,40.3826 205.389,40.8826 205.5,41.5C 200.637,41.1805 195.97,41.5139 191.5,42.5C 187.5,42.5 183.5,42.5 179.5,42.5C 178.965,35.5227 179.965,28.856 182.5,22.5C 191.691,13.917 202.024,12.417 213.5,18C 214.634,19.016 214.301,19.6827 212.5,20C 213.984,20.6622 215.317,21.4955 216.5,22.5 Z"/></g>
<g><path style="opacity:1" fill="#62bcc6" d="M 207.5,31.5 C 207.5,29.8333 207.5,28.1667 207.5,26.5C 206.167,26.5 204.833,26.5 203.5,26.5C 202.566,25.4324 202.232,24.099 202.5,22.5C 201.167,22.5 199.833,22.5 198.5,22.5C 198.5,23.8333 198.5,25.1667 198.5,26.5C 197.5,26.5 196.5,26.5 195.5,26.5C 196.555,23.6155 197.222,20.9488 197.5,18.5C 199.22,19.934 201.22,20.7674 203.5,21C 204.224,23.6699 205.891,25.1699 208.5,25.5C 208.795,27.7354 208.461,29.7354 207.5,31.5 Z"/></g>
<g><path style="opacity:1" fill="#e3fdfd" d="M 183.5,18.5 C 180.954,20.9248 179.454,23.9248 179,27.5C 178.501,33.1569 178.334,38.8236 178.5,44.5C 176.121,36.3518 175.954,28.0184 178,19.5C 179.7,17.7011 181.533,17.3677 183.5,18.5 Z"/></g>
<g><path style="opacity:1" fill="#eafcfb" d="M 203.5,26.5 C 204.209,27.404 205.209,27.7373 206.5,27.5C 206.5,28.5 206.5,29.5 206.5,30.5C 205.209,30.2627 204.209,30.596 203.5,31.5C 202.566,32.5676 202.232,33.901 202.5,35.5C 201.167,35.5 199.833,35.5 198.5,35.5C 198.843,33.5168 198.176,32.1834 196.5,31.5C 196.389,30.8826 196.056,30.3826 195.5,30C 196.71,28.9609 197.71,27.7942 198.5,26.5C 198.5,25.1667 198.5,23.8333 198.5,22.5C 199.833,22.5 201.167,22.5 202.5,22.5C 202.232,24.099 202.566,25.4324 203.5,26.5 Z"/></g>
<g><path style="opacity:1" fill="#adedf4" d="M 203.5,26.5 C 204.833,26.5 206.167,26.5 207.5,26.5C 207.5,28.1667 207.5,29.8333 207.5,31.5C 206.167,31.5 204.833,31.5 203.5,31.5C 204.209,30.596 205.209,30.2627 206.5,30.5C 206.5,29.5 206.5,28.5 206.5,27.5C 205.209,27.7373 204.209,27.404 203.5,26.5 Z"/></g>
<g><path style="opacity:1" fill="#bef4f9" d="M 195.5,26.5 C 196.5,26.5 197.5,26.5 198.5,26.5C 197.71,27.7942 196.71,28.9609 195.5,30C 196.056,30.3826 196.389,30.8826 196.5,31.5C 195.5,31.5 194.5,31.5 193.5,31.5C 193.077,29.2188 193.744,27.5521 195.5,26.5 Z"/></g>
<g><path style="opacity:1" fill="#44c1cf" d="M 146.5,34.5 C 146.258,41.6727 144.924,48.506 142.5,55C 142.438,57.9649 143.605,58.7982 146,57.5C 146.129,54.9973 147.129,52.9973 149,51.5C 149.499,46.5111 149.666,41.5111 149.5,36.5C 150.222,36.9175 150.722,37.5842 151,38.5C 151.399,38.2716 151.565,37.9382 151.5,37.5C 152.674,38.5137 153.34,39.847 153.5,41.5C 152.578,45.9949 151.911,50.6616 151.5,55.5C 151.107,57.2838 150.441,58.9505 149.5,60.5C 148.078,61.925 146.411,62.925 144.5,63.5C 140.632,64.7563 136.632,65.4229 132.5,65.5C 130.5,65.3333 128.5,65.1667 126.5,65C 125.748,64.3292 125.414,63.4959 125.5,62.5C 126.239,62.631 126.906,62.4643 127.5,62C 124.976,59.131 122.809,55.9643 121,52.5C 120.22,50.6131 120.387,48.9464 121.5,47.5C 121.461,49.3588 122.294,50.6921 124,51.5C 124.814,49.0982 124.647,46.7649 123.5,44.5C 122.818,45.2427 122.151,45.9094 121.5,46.5C 121.264,43.7743 122.097,41.441 124,39.5C 125,38.1667 126,38.1667 127,39.5C 127.977,37.26 128.477,34.9267 128.5,32.5C 132.308,32.8368 135.974,32.3368 139.5,31C 137.03,29.886 134.364,29.386 131.5,29.5C 129.167,29.8333 126.833,30.1667 124.5,30.5C 120.622,35.4948 118.289,41.1615 117.5,47.5C 116.5,47.5 115.5,47.5 114.5,47.5C 114.674,44.1262 115.174,40.7928 116,37.5C 118.313,35.5384 120.147,33.2051 121.5,30.5C 122.167,29.8333 122.833,29.1667 123.5,28.5C 131.424,26.3226 138.757,27.4893 145.5,32C 146.252,32.6708 146.586,33.5041 146.5,34.5 Z"/></g>
<g><path style="opacity:1" fill="#41c3c9" d="M 218.5,20.5 C 219.728,21.3065 220.728,22.3065 221.5,23.5C 221.5,24.1667 221.5,24.8333 221.5,25.5C 220.511,30.9753 220.178,36.642 220.5,42.5C 219.5,42.5 218.5,42.5 217.5,42.5C 217.5,37.5 217.5,32.5 217.5,27.5C 217.634,25.7085 217.301,24.0418 216.5,22.5C 216.5,21.1667 217.167,20.5 218.5,20.5 Z"/></g>
<g><path style="opacity:1" fill="#57bdca" d="M 221.5,25.5 C 222.338,25.8417 222.672,26.5084 222.5,27.5C 222.5,33.1667 222.5,38.8333 222.5,44.5C 222.167,44.5 221.833,44.5 221.5,44.5C 216.87,43.7705 212.203,43.4372 207.5,43.5C 202.36,42.5119 197.026,42.1786 191.5,42.5C 195.97,41.5139 200.637,41.1805 205.5,41.5C 207.256,40.4479 207.923,38.7812 207.5,36.5C 205.046,36.3205 202.879,36.9872 201,38.5C 199.69,37.8699 198.856,36.8699 198.5,35.5C 199.833,35.5 201.167,35.5 202.5,35.5C 202.232,33.901 202.566,32.5676 203.5,31.5C 205.151,32.9194 206.984,34.2527 209,35.5C 209.71,34.0267 210.876,33.3601 212.5,33.5C 212.5,35.8333 212.5,38.1667 212.5,40.5C 213.5,40.5 214.5,40.5 215.5,40.5C 215.5,41.8333 216.167,42.5 217.5,42.5C 218.5,42.5 219.5,42.5 220.5,42.5C 220.178,36.642 220.511,30.9753 221.5,25.5 Z"/></g>
<g><path style="opacity:1" fill="#4bc1c7" d="M 193.5,31.5 C 194.5,31.5 195.5,31.5 196.5,31.5C 198.176,32.1834 198.843,33.5168 198.5,35.5C 198.856,36.8699 199.69,37.8699 201,38.5C 202.879,36.9872 205.046,36.3205 207.5,36.5C 207.923,38.7812 207.256,40.4479 205.5,41.5C 205.389,40.8826 205.056,40.3826 204.5,40C 200.179,39.501 195.846,39.3343 191.5,39.5C 191.5,38.5 191.5,37.5 191.5,36.5C 193.696,36.4348 195.696,35.7681 197.5,34.5C 195.668,33.9432 194.335,32.9432 193.5,31.5 Z"/></g>
<g><path style="opacity:1" fill="#49bed6" d="M 217.5,27.5 C 217.5,32.5 217.5,37.5 217.5,42.5C 216.167,42.5 215.5,41.8333 215.5,40.5C 214.329,35.1832 212.995,29.8499 211.5,24.5C 212.035,22.8987 213.035,22.3987 214.5,23C 215.399,24.6516 216.399,26.1516 217.5,27.5 Z"/></g>
<g><path style="opacity:1" fill="#eafeff" d="M 222.5,27.5 C 223.222,27.9175 223.722,28.5842 224,29.5C 224.167,32 224.333,34.5 224.5,37C 224.475,39.9294 223.809,42.4294 222.5,44.5C 222.5,38.8333 222.5,33.1667 222.5,27.5 Z"/></g>
<g><path style="opacity:1" fill="#e1fafc" d="M 149.5,60.5 C 150.441,58.9505 151.107,57.2838 151.5,55.5C 154.606,51.2815 155.272,46.6149 153.5,41.5C 153.34,39.847 152.674,38.5137 151.5,37.5C 144.758,26.4914 135.425,23.4914 123.5,28.5C 122.833,29.1667 122.167,29.8333 121.5,30.5C 119.629,30.8588 118.129,31.8588 117,33.5C 115.476,35.8981 113.976,38.2314 112.5,40.5C 113.247,35.8564 114.914,31.6897 117.5,28C 127.977,23.238 138.31,23.4047 148.5,28.5C 150.667,31.5 152.833,34.5 155,37.5C 155.521,44.8478 155.355,52.1811 154.5,59.5C 152.784,59.6287 151.117,59.962 149.5,60.5 Z"/></g>
<g><path style="opacity:1" fill="#63babf" d="M 151.5,37.5 C 151.565,37.9382 151.399,38.2716 151,38.5C 150.722,37.5842 150.222,36.9175 149.5,36.5C 148.5,35.8333 147.5,35.1667 146.5,34.5C 146.586,33.5041 146.252,32.6708 145.5,32C 138.757,27.4893 131.424,26.3226 123.5,28.5C 135.425,23.4914 144.758,26.4914 151.5,37.5 Z"/></g>
<g><path style="opacity:1" fill="#abebf4" d="M 191.5,42.5 C 197.026,42.1786 202.36,42.5119 207.5,43.5C 199.486,43.5676 191.486,43.901 183.5,44.5C 186.167,43.8333 188.833,43.1667 191.5,42.5 Z"/></g>
<g><path style="opacity:1" fill="#38c9c9" d="M 121.5,47.5 C 121.5,47.1667 121.5,46.8333 121.5,46.5C 122.151,45.9094 122.818,45.2427 123.5,44.5C 124.647,46.7649 124.814,49.0982 124,51.5C 122.294,50.6921 121.461,49.3588 121.5,47.5 Z"/></g>
<g><path style="opacity:1" fill="#dbfdfd" d="M 207.5,43.5 C 212.203,43.4372 216.87,43.7705 221.5,44.5C 221.5,45.8333 221.5,47.1667 221.5,48.5C 208.556,46.2971 195.556,45.9638 182.5,47.5C 181.167,47.8333 179.833,48.1667 178.5,48.5C 178.5,47.1667 178.5,45.8333 178.5,44.5C 180.167,44.5 181.833,44.5 183.5,44.5C 191.486,43.901 199.486,43.5676 207.5,43.5 Z"/></g>
<g><path style="opacity:1" fill="#64b5bf" d="M 153.5,41.5 C 155.272,46.6149 154.606,51.2815 151.5,55.5C 151.911,50.6616 152.578,45.9949 153.5,41.5 Z"/></g>
<g><path style="opacity:1" fill="#47bfd5" d="M 146.5,34.5 C 147.5,35.1667 148.5,35.8333 149.5,36.5C 149.666,41.5111 149.499,46.5111 149,51.5C 147.129,52.9973 146.129,54.9973 146,57.5C 143.605,58.7982 142.438,57.9649 142.5,55C 144.924,48.506 146.258,41.6727 146.5,34.5 Z"/></g>
<g><path style="opacity:1" fill="#46c0d4" d="M 121.5,46.5 C 121.5,46.8333 121.5,47.1667 121.5,47.5C 120.387,48.9464 120.22,50.6131 121,52.5C 122.809,55.9643 124.976,59.131 127.5,62C 126.906,62.4643 126.239,62.631 125.5,62.5C 124.448,62.6495 123.448,62.4828 122.5,62C 120.95,58.9487 118.617,56.782 115.5,55.5C 115.167,52.8333 114.833,50.1667 114.5,47.5C 115.5,47.5 116.5,47.5 117.5,47.5C 118.289,41.1615 120.622,35.4948 124.5,30.5C 126.833,30.1667 129.167,29.8333 131.5,29.5C 134.364,29.386 137.03,29.886 139.5,31C 135.974,32.3368 132.308,32.8368 128.5,32.5C 128.477,34.9267 127.977,37.26 127,39.5C 126,38.1667 125,38.1667 124,39.5C 122.097,41.441 121.264,43.7743 121.5,46.5 Z"/></g>
<g><path style="opacity:1" fill="#dbf9f9" d="M 112.5,43.5 C 111.886,48.0319 112.886,52.0319 115.5,55.5C 115.933,58.2853 117.266,60.6187 119.5,62.5C 122.231,64.1916 124.898,65.8583 127.5,67.5C 124.022,67.8158 120.688,67.3158 117.5,66C 118.5,65.6667 119.5,65.3333 120.5,65C 116.969,62.1287 114.136,58.6287 112,54.5C 111.19,50.6425 111.357,46.9758 112.5,43.5 Z"/></g>
<g><path style="opacity:1" fill="#6bbbc2" d="M 121.5,30.5 C 120.147,33.2051 118.313,35.5384 116,37.5C 115.174,40.7928 114.674,44.1262 114.5,47.5C 114.833,50.1667 115.167,52.8333 115.5,55.5C 112.886,52.0319 111.886,48.0319 112.5,43.5C 112.5,42.5 112.5,41.5 112.5,40.5C 113.976,38.2314 115.476,35.8981 117,33.5C 118.129,31.8588 119.629,30.8588 121.5,30.5 Z"/></g>
<g><path style="opacity:1" fill="#44c2d0" d="M 190.5,70.5 C 180.397,66.3408 177.397,59.3408 181.5,49.5C 182.584,62.1077 184.584,62.441 187.5,50.5C 187.291,49.914 186.957,49.414 186.5,49C 196.161,48.5002 205.828,48.3335 215.5,48.5C 215.5,53.5 215.5,58.5 215.5,63.5C 213.833,63.5 212.167,63.5 210.5,63.5C 210.822,65.7224 210.155,67.5557 208.5,69C 202.419,69.2092 196.419,69.7092 190.5,70.5 Z"/></g>
<g><path style="opacity:1" fill="#51becd" d="M 221.5,48.5 C 222.167,48.5 222.5,48.8333 222.5,49.5C 222.817,53.7016 222.483,57.7016 221.5,61.5C 221.836,57.0511 221.503,53.3845 220.5,50.5C 220.53,58.2902 217.863,65.1235 212.5,71C 213.448,71.4828 214.448,71.6495 215.5,71.5C 213.266,73.4459 210.599,74.6126 207.5,75C 203.848,75.4986 200.182,75.6653 196.5,75.5C 195.791,74.596 194.791,74.2627 193.5,74.5C 192.653,73.0337 191.32,72.2004 189.5,72C 190.056,71.6174 190.389,71.1174 190.5,70.5C 196.419,69.7092 202.419,69.2092 208.5,69C 210.155,67.5557 210.822,65.7224 210.5,63.5C 212.167,63.5 213.833,63.5 215.5,63.5C 215.5,58.5 215.5,53.5 215.5,48.5C 205.828,48.3335 196.161,48.5002 186.5,49C 186.957,49.414 187.291,49.914 187.5,50.5C 184.584,62.441 182.584,62.1077 181.5,49.5C 181.833,48.8333 182.167,48.1667 182.5,47.5C 195.556,45.9638 208.556,46.2971 221.5,48.5 Z"/></g>
<g><path style="opacity:1" fill="#e1fafb" d="M 235.5,62.5 C 233.409,62.3184 231.409,62.6518 229.5,63.5C 228.167,64.5 228.167,65.5 229.5,66.5C 236.734,69.6091 243.067,73.9425 248.5,79.5C 247.127,79.6567 245.793,79.49 244.5,79C 242.444,74.9682 239.11,72.9682 234.5,73C 232.652,70.8208 230.485,68.9874 228,67.5C 225.771,64.4397 226.104,61.7731 229,59.5C 231.609,59.8375 233.776,60.8375 235.5,62.5 Z"/></g>
<g><path style="opacity:1" fill="#42c4c8" d="M 220.5,50.5 C 221.479,58.2467 219.812,65.2467 215.5,71.5C 214.448,71.6495 213.448,71.4828 212.5,71C 217.863,65.1235 220.53,58.2902 220.5,50.5 Z"/></g>
<g><path style="opacity:1" fill="#d1fafc" d="M 178.5,48.5 C 178.334,52.8461 178.501,57.1794 179,61.5C 179.666,64.1662 180.833,66.4995 182.5,68.5C 180.549,67.7177 179.049,66.3844 178,64.5C 177.183,58.9836 177.349,53.6503 178.5,48.5 Z"/></g>
<g><path style="opacity:1" fill="#58bac2" d="M 115.5,55.5 C 118.617,56.782 120.95,58.9487 122.5,62C 123.448,62.4828 124.448,62.6495 125.5,62.5C 125.414,63.4959 125.748,64.3292 126.5,65C 128.5,65.1667 130.5,65.3333 132.5,65.5C 136.632,65.4229 140.632,64.7563 144.5,63.5C 143.025,65.4095 141.025,66.5762 138.5,67C 135.854,67.4974 133.187,67.6641 130.5,67.5C 129.5,67.5 128.5,67.5 127.5,67.5C 124.898,65.8583 122.231,64.1916 119.5,62.5C 117.266,60.6187 115.933,58.2853 115.5,55.5 Z"/></g>
<g><path style="opacity:1" fill="#69c0c7" d="M 182.5,47.5 C 182.167,48.1667 181.833,48.8333 181.5,49.5C 177.397,59.3408 180.397,66.3408 190.5,70.5C 190.389,71.1174 190.056,71.6174 189.5,72C 191.32,72.2004 192.653,73.0337 193.5,74.5C 192.167,74.1667 190.833,73.8333 189.5,73.5C 186.888,72.2213 184.555,70.5547 182.5,68.5C 180.833,66.4995 179.666,64.1662 179,61.5C 178.501,57.1794 178.334,52.8461 178.5,48.5C 179.833,48.1667 181.167,47.8333 182.5,47.5 Z"/></g>
<g><path style="opacity:1" fill="#dafcfd" d="M 149.5,60.5 C 148.545,62.7457 147.878,65.079 147.5,67.5C 141.661,68.2791 135.994,68.2791 130.5,67.5C 133.187,67.6641 135.854,67.4974 138.5,67C 141.025,66.5762 143.025,65.4095 144.5,63.5C 146.411,62.925 148.078,61.925 149.5,60.5 Z"/></g>
<g><path style="opacity:1" fill="#ddf8fa" d="M 235.5,63.5 C 235.5,63.1667 235.5,62.8333 235.5,62.5C 237.857,62.3367 240.19,62.5034 242.5,63C 246.442,65.2302 249.776,68.0635 252.5,71.5C 246.943,68.5544 241.277,65.8878 235.5,63.5 Z"/></g>
<g><path style="opacity:1" fill="#53b3b5" d="M 221.5,61.5 C 221.471,66.1608 219.471,69.4941 215.5,71.5C 219.812,65.2467 221.479,58.2467 220.5,50.5C 221.503,53.3845 221.836,57.0511 221.5,61.5 Z"/></g>
<g><path style="opacity:1" fill="#defefe" d="M 138.5,71.5 C 130.294,71.0786 122.294,72.0786 114.5,74.5C 114.577,73.2502 115.244,72.4169 116.5,72C 123.972,70.5295 131.306,70.3628 138.5,71.5 Z"/></g>
<g><path style="opacity:1" fill="#e0fcfd" d="M 222.5,49.5 C 223.809,50.624 224.475,52.124 224.5,54C 224.214,60.1491 222.881,65.9824 220.5,71.5C 213.05,76.4606 205.05,77.794 196.5,75.5C 200.182,75.6653 203.848,75.4986 207.5,75C 210.599,74.6126 213.266,73.4459 215.5,71.5C 219.471,69.4941 221.471,66.1608 221.5,61.5C 222.483,57.7016 222.817,53.7016 222.5,49.5 Z"/></g>
<g><path style="opacity:1" fill="#59bec5" d="M 235.5,62.5 C 235.5,62.8333 235.5,63.1667 235.5,63.5C 230.36,64.4116 230.36,65.7449 235.5,67.5C 237.098,66.5153 238.765,66.3486 240.5,67C 243.743,69.0954 247.077,70.9287 250.5,72.5C 250.489,74.0174 249.823,75.1841 248.5,76C 251.781,80.4032 255.614,84.2365 260,87.5C 263.044,98.5075 263.211,109.508 260.5,120.5C 258.97,122.369 257.47,124.369 256,126.5C 254.871,128.141 253.371,129.141 251.5,129.5C 253.678,127.142 255.345,124.475 256.5,121.5C 261.82,113.306 262.82,104.639 259.5,95.5C 258.205,91.5766 256.372,87.9099 254,84.5C 252.574,82.2342 250.74,80.5676 248.5,79.5C 243.067,73.9425 236.734,69.6091 229.5,66.5C 228.167,65.5 228.167,64.5 229.5,63.5C 231.409,62.6518 233.409,62.3184 235.5,62.5 Z"/></g>
<g><path style="opacity:1" fill="#d7fafb" d="M 140.5,71.5 C 144.794,70.8073 148.461,71.8073 151.5,74.5C 147.521,74.2576 143.854,73.2576 140.5,71.5 Z"/></g>
<g><path style="opacity:1" fill="#58bcc6" d="M 138.5,71.5 C 139.167,71.5 139.833,71.5 140.5,71.5C 143.854,73.2576 147.521,74.2576 151.5,74.5C 155.807,76.6573 159.807,79.3239 163.5,82.5C 164.167,82.5 164.5,82.8333 164.5,83.5C 162.601,87.3017 161.267,91.3017 160.5,95.5C 160.5,96.1667 160.5,96.8333 160.5,97.5C 159.71,98.6085 159.21,99.9419 159,101.5C 158.829,110.01 158.329,118.343 157.5,126.5C 157.821,121.305 157.487,116.305 156.5,111.5C 155.903,111.265 155.57,110.765 155.5,110C 157.075,101.676 159.075,93.5096 161.5,85.5C 160.74,83.5634 159.74,81.7301 158.5,80C 154.719,77.7754 150.719,76.1087 146.5,75C 134.647,73.9767 122.98,74.4767 111.5,76.5C 112.29,75.5987 113.29,74.9321 114.5,74.5C 122.294,72.0786 130.294,71.0786 138.5,71.5 Z"/></g>
<g><path style="opacity:1" fill="#5eb9c8" d="M 235.5,63.5 C 241.277,65.8878 246.943,68.5544 252.5,71.5C 252.973,72.9063 253.973,73.573 255.5,73.5C 255.5,74.1667 255.5,74.8333 255.5,75.5C 253.326,75.2503 251.659,74.2503 250.5,72.5C 247.077,70.9287 243.743,69.0954 240.5,67C 238.765,66.3486 237.098,66.5153 235.5,67.5C 230.36,65.7449 230.36,64.4116 235.5,63.5 Z"/></g>
<g><path style="opacity:1" fill="#dcf8fb" d="M 151.5,74.5 C 157.427,74.4534 161.427,77.1201 163.5,82.5C 159.807,79.3239 155.807,76.6573 151.5,74.5 Z"/></g>
<g><path style="opacity:1" fill="#c1f7fc" d="M 189.5,73.5 C 190.833,73.8333 192.167,74.1667 193.5,74.5C 194.791,74.2627 195.791,74.596 196.5,75.5C 194.473,75.6621 192.473,75.4955 190.5,75C 189.944,74.6174 189.611,74.1174 189.5,73.5 Z"/></g>
<g><path style="opacity:1" fill="#e5fafd" d="M 93.5,70.5 C 90.5271,72.8062 87.8605,75.4728 85.5,78.5C 83.5201,79.4839 81.8534,80.8173 80.5,82.5C 80.5,81.1667 80.5,79.8333 80.5,78.5C 81.5,78.5 82.5,78.5 83.5,78.5C 83.2965,76.6096 83.9632,75.1096 85.5,74C 88.0904,72.5549 90.757,71.3882 93.5,70.5 Z"/></g>
<g><path style="opacity:1" fill="#44c1d0" d="M 156.5,111.5 C 156.5,116.167 156.5,120.833 156.5,125.5C 155.209,125.737 154.209,125.404 153.5,124.5C 153.666,120.154 153.499,115.821 153,111.5C 152.094,104.35 150.76,104.016 149,110.5C 147.938,111.097 146.772,111.43 145.5,111.5C 133.904,110.658 123.07,110.658 113,111.5C 112.301,113.074 112.635,114.407 114,115.5C 117.667,115.167 121.333,114.833 125,114.5C 126.667,115.167 128.333,115.833 130,116.5C 133.667,116.167 137.333,115.833 141,115.5C 141.5,116 142,116.5 142.5,117C 129.765,117.941 118.098,118.441 107.5,118.5C 107.5,119.5 107.5,120.5 107.5,121.5C 105.5,121.5 103.5,121.5 101.5,121.5C 100.342,112.343 100.176,103.009 101,93.5C 102.618,89.4698 104.118,85.4698 105.5,81.5C 106.911,79.086 108.911,77.4194 111.5,76.5C 122.98,74.4767 134.647,73.9767 146.5,75C 150.719,76.1087 154.719,77.7754 158.5,80C 159.74,81.7301 160.74,83.5634 161.5,85.5C 159.075,93.5096 157.075,101.676 155.5,110C 155.57,110.765 155.903,111.265 156.5,111.5 Z"/></g>
<g><path style="opacity:1" fill="#e0fbfb" d="M 93.5,70.5 C 94.5676,69.5655 95.901,69.2322 97.5,69.5C 98.028,73.2105 97.028,76.3772 94.5,79C 94.6448,79.772 94.9781,80.4387 95.5,81C 93.6711,81.2735 92.1711,82.1068 91,83.5C 89.2385,88.0363 86.7385,92.0363 83.5,95.5C 85.0871,86.9967 89.2538,79.9967 96,74.5C 96.9098,72.0551 96.0764,70.7218 93.5,70.5 Z"/></g>
<g><path style="opacity:1" fill="#63b8c2" d="M 217.5,81.5 C 224.75,83.4273 229.75,87.7607 232.5,94.5C 229.852,92.4341 227.518,89.9341 225.5,87C 223.112,85.1395 220.446,83.8061 217.5,83C 216.262,82.31 216.262,81.81 217.5,81.5 Z"/></g>
<g><path style="opacity:1" fill="#defbfc" d="M 192.5,79.5 C 201.657,78.3424 210.991,78.1757 220.5,79C 230.085,83.012 235.085,90.1787 235.5,100.5C 235.167,100.5 234.833,100.5 234.5,100.5C 234.741,98.1137 234.075,96.1137 232.5,94.5C 229.75,87.7607 224.75,83.4273 217.5,81.5C 217.158,80.6618 216.492,80.3284 215.5,80.5C 208.018,79.508 200.352,79.1746 192.5,79.5 Z"/></g>
<g><path style="opacity:1" fill="#5eb5bd" d="M 93.5,70.5 C 96.0764,70.7218 96.9098,72.0551 96,74.5C 89.2538,79.9967 85.0871,86.9967 83.5,95.5C 82.8333,96.8333 82.1667,98.1667 81.5,99.5C 81.5,97.1667 81.5,94.8333 81.5,92.5C 83.5418,88.2484 85.8751,84.0817 88.5,80C 87.4982,78.8437 86.4982,78.3437 85.5,78.5C 87.8605,75.4728 90.5271,72.8062 93.5,70.5 Z"/></g>
<g><path style="opacity:1" fill="#44c1d0" d="M 215.5,80.5 C 216.492,80.3284 217.158,80.6618 217.5,81.5C 216.262,81.81 216.262,82.31 217.5,83C 220.446,83.8061 223.112,85.1395 225.5,87C 227.518,89.9341 229.852,92.4341 232.5,94.5C 234.075,96.1137 234.741,98.1137 234.5,100.5C 234.827,109.682 234.493,118.682 233.5,127.5C 232.18,128.942 230.514,129.608 228.5,129.5C 228.611,128.883 228.944,128.383 229.5,128C 228.207,127.51 226.873,127.343 225.5,127.5C 225.5,121.833 225.5,116.167 225.5,110.5C 226.833,110.5 228.167,110.5 229.5,110.5C 230.053,105.518 230.387,100.518 230.5,95.5C 229.5,95.5 228.5,95.5 227.5,95.5C 227.811,99.6804 227.145,103.68 225.5,107.5C 224.117,104.924 223.283,105.258 223,108.5C 222.501,114.491 222.334,120.491 222.5,126.5C 205.833,126.5 189.167,126.5 172.5,126.5C 172.5,121.5 172.5,116.5 172.5,111.5C 171.5,111.5 170.5,111.5 169.5,111.5C 169.334,116.844 169.501,122.177 170,127.5C 170.717,128.044 171.217,128.711 171.5,129.5C 170.167,129.5 168.833,129.5 167.5,129.5C 167.254,117.803 167.587,106.136 168.5,94.5C 169.458,94.0472 170.292,93.3805 171,92.5C 171.333,93.1667 171.667,93.8333 172,94.5C 172.862,92.913 173.529,91.2464 174,89.5C 178.048,87.344 181.214,85.0106 183.5,82.5C 194.322,81.9012 204.989,81.2345 215.5,80.5 Z"/></g>
<g><path style="opacity:1" fill="#47c1cc" d="M 250.5,72.5 C 251.659,74.2503 253.326,75.2503 255.5,75.5C 262.077,79.0707 266.41,84.404 268.5,91.5C 268.5,92.8333 268.5,94.1667 268.5,95.5C 267.5,95.5 266.5,95.5 265.5,95.5C 265.813,92.7531 265.48,90.0865 264.5,87.5C 262.538,86.1463 261.538,86.8129 261.5,89.5C 261.953,92.4007 262.953,95.0674 264.5,97.5C 263.25,103.496 263.25,109.496 264.5,115.5C 265.182,116.243 265.849,116.909 266.5,117.5C 265.191,123.041 263.691,123.374 262,118.5C 261.722,119.416 261.222,120.082 260.5,120.5C 263.211,109.508 263.044,98.5075 260,87.5C 255.614,84.2365 251.781,80.4032 248.5,76C 249.823,75.1841 250.489,74.0174 250.5,72.5 Z"/></g>
<g><path style="opacity:1" fill="#e0fbf9" d="M 164.5,83.5 C 165.927,85.1484 166.76,87.1484 167,89.5C 167.671,90.2524 168.504,90.5858 169.5,90.5C 169.167,91.8333 168.833,93.1667 168.5,94.5C 167.833,94.8333 167.167,95.1667 166.5,95.5C 166.5,93.8333 166.5,92.1667 166.5,90.5C 165.5,90.5 164.5,90.5 163.5,90.5C 163.5,92.1667 163.5,93.8333 163.5,95.5C 162.5,95.5 161.5,95.5 160.5,95.5C 161.267,91.3017 162.601,87.3017 164.5,83.5 Z"/></g>
<g><path style="opacity:1" fill="#5dbec7" d="M 192.5,79.5 C 200.352,79.1746 208.018,79.508 215.5,80.5C 204.989,81.2345 194.322,81.9012 183.5,82.5C 181.214,85.0106 178.048,87.344 174,89.5C 173.529,91.2464 172.862,92.913 172,94.5C 171.667,93.8333 171.333,93.1667 171,92.5C 170.292,93.3805 169.458,94.0472 168.5,94.5C 168.833,93.1667 169.167,91.8333 169.5,90.5C 175.199,82.8181 182.865,79.1514 192.5,79.5 Z"/></g>
<g><path style="opacity:1" fill="#e3fcfe" d="M 83.5,95.5 C 83.0843,104.284 83.751,112.951 85.5,121.5C 85.1667,121.5 84.8333,121.5 84.5,121.5C 83.871,118.603 82.871,115.936 81.5,113.5C 81.5,108.833 81.5,104.167 81.5,99.5C 82.1667,98.1667 82.8333,96.8333 83.5,95.5 Z"/></g>
<g><path style="opacity:1" fill="#68b9c5" d="M 105.5,81.5 C 104.118,85.4698 102.618,89.4698 101,93.5C 100.176,103.009 100.342,112.343 101.5,121.5C 102.984,123.074 104.651,124.407 106.5,125.5C 106.5,125.833 106.5,126.167 106.5,126.5C 105.5,126.5 104.5,126.5 103.5,126.5C 101.016,124.88 99.5158,122.547 99,119.5C 98.3333,110.167 98.3333,100.833 99,91.5C 99.5133,90.4734 100.013,89.4734 100.5,88.5C 101.811,85.8646 103.478,83.5313 105.5,81.5 Z"/></g>
<g><path style="opacity:1" fill="#dafafb" d="M 259.5,95.5 C 262.82,104.639 261.82,113.306 256.5,121.5C 259.193,113.092 260.193,104.425 259.5,95.5 Z"/></g>
<g><path style="opacity:1" fill="#ebfcfc" d="M 74.5,90.5 C 73.1996,94.0961 72.1996,97.7627 71.5,101.5C 71.1667,101.5 70.8333,101.5 70.5,101.5C 69.3516,105.981 69.1849,110.648 70,115.5C 70.0367,117.974 70.87,119.974 72.5,121.5C 80.7269,136.05 92.7269,146.383 108.5,152.5C 109.911,154.539 111.911,155.539 114.5,155.5C 115.791,155.263 116.791,155.596 117.5,156.5C 108.507,156.828 100.84,153.828 94.5,147.5C 92.9223,146.702 91.2556,146.202 89.5,146C 88.6634,144.989 88.33,143.822 88.5,142.5C 87.448,142.351 86.448,142.517 85.5,143C 86.8333,143.667 86.8333,144.333 85.5,145C 83.5,145.667 81.5,145.667 79.5,145C 81.6051,143.807 83.2718,142.14 84.5,140C 83.062,139.781 81.7287,139.281 80.5,138.5C 76.3906,132.345 72.5573,126.012 69,119.5C 67.8216,113.819 66.6549,108.153 65.5,102.5C 65.8333,100.833 66.1667,99.1667 66.5,97.5C 67.2508,98.376 67.7508,99.376 68,100.5C 70.2574,97.5619 71.424,94.2285 71.5,90.5C 72.5,90.5 73.5,90.5 74.5,90.5 Z"/></g>
<g><path style="opacity:1" fill="#40c5ce" d="M 76.5,92.5 C 75.6803,98.7974 75.347,105.131 75.5,111.5C 74.5,111.5 73.5,111.5 72.5,111.5C 72.3399,106.434 72.8399,101.434 74,96.5C 74.6082,94.9336 75.4415,93.6002 76.5,92.5 Z"/></g>
<g><path style="opacity:1" fill="#59babd" d="M 77.5,87.5 C 77.634,89.2915 77.3007,90.9582 76.5,92.5C 75.4415,93.6002 74.6082,94.9336 74,96.5C 72.8399,101.434 72.3399,106.434 72.5,111.5C 71.5206,108.375 71.1872,105.042 71.5,101.5C 72.1996,97.7627 73.1996,94.0961 74.5,90.5C 75.2719,89.3065 76.2719,88.3065 77.5,87.5 Z"/></g>
<g><path style="opacity:1" fill="#f1fcfb" d="M 255.5,73.5 C 259.147,74.3156 262.48,75.8156 265.5,78C 266.376,80.3757 268.042,81.8757 270.5,82.5C 269.652,86.4762 269.818,90.4762 271,94.5C 272.509,95.0897 274.009,95.7564 275.5,96.5C 272.932,101.273 272.932,106.106 275.5,111C 274.552,111.483 273.552,111.649 272.5,111.5C 272.89,115.394 272.223,119.06 270.5,122.5C 269.808,121.975 269.308,121.308 269,120.5C 267.796,122.823 266.962,125.323 266.5,128C 265.23,129.775 263.564,130.942 261.5,131.5C 261.762,129.436 262.929,128.103 265,127.5C 265.608,125.846 266.108,124.179 266.5,122.5C 266.733,120.938 267.4,119.605 268.5,118.5C 269.496,118.586 270.329,118.252 271,117.5C 271.498,114.518 271.665,111.518 271.5,108.5C 271.81,105.287 271.477,102.287 270.5,99.5C 270.435,96.5718 269.768,93.9052 268.5,91.5C 266.41,84.404 262.077,79.0707 255.5,75.5C 255.5,74.8333 255.5,74.1667 255.5,73.5 Z"/></g>
<g><path style="opacity:1" fill="#4abfd4" d="M 268.5,91.5 C 269.768,93.9052 270.435,96.5718 270.5,99.5C 269.82,105.547 268.487,111.547 266.5,117.5C 265.849,116.909 265.182,116.243 264.5,115.5C 263.25,109.496 263.25,103.496 264.5,97.5C 262.953,95.0674 261.953,92.4007 261.5,89.5C 261.538,86.8129 262.538,86.1463 264.5,87.5C 265.48,90.0865 265.813,92.7531 265.5,95.5C 266.5,95.5 267.5,95.5 268.5,95.5C 268.5,94.1667 268.5,92.8333 268.5,91.5 Z"/></g>
<g><path style="opacity:1" fill="#d0f6fa" d="M 70.5,101.5 C 70.3874,108.264 71.0541,114.93 72.5,121.5C 70.87,119.974 70.0367,117.974 70,115.5C 69.1849,110.648 69.3516,105.981 70.5,101.5 Z"/></g>
<g><path style="opacity:1" fill="#49bfd3" d="M 85.5,78.5 C 86.4982,78.3437 87.4982,78.8437 88.5,80C 85.8751,84.0817 83.5418,88.2484 81.5,92.5C 79.6026,94.2688 78.436,96.6021 78,99.5C 77.6432,103.51 77.8099,107.51 78.5,111.5C 76.6897,114.372 75.6897,117.705 75.5,121.5C 74.8826,121.389 74.3826,121.056 74,120.5C 73.304,117.522 72.804,114.522 72.5,111.5C 73.5,111.5 74.5,111.5 75.5,111.5C 75.347,105.131 75.6803,98.7974 76.5,92.5C 77.3007,90.9582 77.634,89.2915 77.5,87.5C 78.075,85.5887 79.075,83.922 80.5,82.5C 81.8534,80.8173 83.5201,79.4839 85.5,78.5 Z"/></g>
<g><path style="opacity:1" fill="#45c0d1" d="M 153.5,124.5 C 137.881,125.469 122.214,125.803 106.5,125.5C 104.651,124.407 102.984,123.074 101.5,121.5C 103.5,121.5 105.5,121.5 107.5,121.5C 107.5,120.5 107.5,119.5 107.5,118.5C 118.098,118.441 129.765,117.941 142.5,117C 142,116.5 141.5,116 141,115.5C 137.333,115.833 133.667,116.167 130,116.5C 128.333,115.833 126.667,115.167 125,114.5C 121.333,114.833 117.667,115.167 114,115.5C 112.635,114.407 112.301,113.074 113,111.5C 123.07,110.658 133.904,110.658 145.5,111.5C 146.772,111.43 147.938,111.097 149,110.5C 150.76,104.016 152.094,104.35 153,111.5C 153.499,115.821 153.666,120.154 153.5,124.5 Z"/></g>
<g><path style="opacity:1" fill="#b4f1f7" d="M 234.5,100.5 C 234.833,100.5 235.167,100.5 235.5,100.5C 235.76,110.872 235.427,121.206 234.5,131.5C 233.5,131.5 232.5,131.5 231.5,131.5C 231.5,131.167 231.5,130.833 231.5,130.5C 233.048,130.179 233.715,129.179 233.5,127.5C 234.493,118.682 234.827,109.682 234.5,100.5 Z"/></g>
<g><path style="opacity:1" fill="#47bfc7" d="M 81.5,92.5 C 81.5,94.8333 81.5,97.1667 81.5,99.5C 81.5,104.167 81.5,108.833 81.5,113.5C 81.3455,116.716 82.3455,119.383 84.5,121.5C 84.631,122.239 84.4643,122.906 84,123.5C 82.4905,122.91 80.9905,122.244 79.5,121.5C 78.0859,118.154 77.7526,114.821 78.5,111.5C 77.8099,107.51 77.6432,103.51 78,99.5C 78.436,96.6021 79.6026,94.2688 81.5,92.5 Z"/></g>
<g><path style="opacity:1" fill="#c8f7f9" d="M 160.5,97.5 C 160.666,107.172 160.5,116.839 160,126.5C 159.329,127.252 158.496,127.586 157.5,127.5C 139.326,127.83 121.326,127.497 103.5,126.5C 104.5,126.5 105.5,126.5 106.5,126.5C 123.5,126.5 140.5,126.5 157.5,126.5C 158.329,118.343 158.829,110.01 159,101.5C 159.21,99.9419 159.71,98.6085 160.5,97.5 Z"/></g>
<g><path style="opacity:1" fill="#d1f7f9" d="M 271.5,108.5 C 271.665,111.518 271.498,114.518 271,117.5C 270.329,118.252 269.496,118.586 268.5,118.5C 269.13,114.952 270.13,111.619 271.5,108.5 Z"/></g>
<g><path style="opacity:1" fill="#84d4d8" d="M 81.5,113.5 C 82.871,115.936 83.871,118.603 84.5,121.5C 82.3455,119.383 81.3455,116.716 81.5,113.5 Z"/></g>
<g><path style="opacity:1" fill="#4fbcc9" d="M 270.5,99.5 C 271.477,102.287 271.81,105.287 271.5,108.5C 270.13,111.619 269.13,114.952 268.5,118.5C 267.4,119.605 266.733,120.938 266.5,122.5C 265.061,124.36 263.395,126.027 261.5,127.5C 257.394,130.429 253.394,133.596 249.5,137C 248.748,137.671 248.414,138.504 248.5,139.5C 243.395,142.892 238.062,146.059 232.5,149C 228.339,150.174 227.005,148.841 228.5,145C 235.53,142.159 241.863,138.326 247.5,133.5C 248.5,131.833 249.833,130.5 251.5,129.5C 253.371,129.141 254.871,128.141 256,126.5C 257.47,124.369 258.97,122.369 260.5,120.5C 261.222,120.082 261.722,119.416 262,118.5C 263.691,123.374 265.191,123.041 266.5,117.5C 268.487,111.547 269.82,105.547 270.5,99.5 Z"/></g>
<g><path style="opacity:1" fill="#42adb5" d="M 156.5,111.5 C 157.487,116.305 157.821,121.305 157.5,126.5C 140.5,126.5 123.5,126.5 106.5,126.5C 106.5,126.167 106.5,125.833 106.5,125.5C 122.214,125.803 137.881,125.469 153.5,124.5C 154.209,125.404 155.209,125.737 156.5,125.5C 156.5,120.833 156.5,116.167 156.5,111.5 Z"/></g>
<g><path style="opacity:1" fill="#46bfd4" d="M 228.5,129.5 C 210.659,129.17 192.992,129.503 175.5,130.5C 173.901,130.768 172.568,130.434 171.5,129.5C 171.217,128.711 170.717,128.044 170,127.5C 169.501,122.177 169.334,116.844 169.5,111.5C 170.5,111.5 171.5,111.5 172.5,111.5C 172.5,116.5 172.5,121.5 172.5,126.5C 189.167,126.5 205.833,126.5 222.5,126.5C 222.334,120.491 222.501,114.491 223,108.5C 223.283,105.258 224.117,104.924 225.5,107.5C 227.145,103.68 227.811,99.6804 227.5,95.5C 228.5,95.5 229.5,95.5 230.5,95.5C 230.387,100.518 230.053,105.518 229.5,110.5C 228.167,110.5 226.833,110.5 225.5,110.5C 225.5,116.167 225.5,121.833 225.5,127.5C 226.873,127.343 228.207,127.51 229.5,128C 228.944,128.383 228.611,128.883 228.5,129.5 Z"/></g>
<g><path style="opacity:1" fill="#e7fefe" d="M 100.5,88.5 C 100.013,89.4734 99.5133,90.4734 99,91.5C 98.3333,100.833 98.3333,110.167 99,119.5C 99.5158,122.547 101.016,124.88 103.5,126.5C 121.326,127.497 139.326,127.83 157.5,127.5C 138.307,128.802 118.973,128.802 99.5,127.5C 97.4979,114.947 96.9979,102.28 98,89.5C 98.6708,88.7476 99.5041,88.4142 100.5,88.5 Z"/></g>
<g><path style="opacity:1" fill="#45b6c2" d="M 233.5,127.5 C 233.715,129.179 233.048,130.179 231.5,130.5C 212.833,130.5 194.167,130.5 175.5,130.5C 192.992,129.503 210.659,129.17 228.5,129.5C 230.514,129.608 232.18,128.942 233.5,127.5 Z"/></g>
<g><path style="opacity:1" fill="#6ec2c9" d="M 168.5,94.5 C 167.587,106.136 167.254,117.803 167.5,129.5C 168.833,129.5 170.167,129.5 171.5,129.5C 172.568,130.434 173.901,130.768 175.5,130.5C 194.167,130.5 212.833,130.5 231.5,130.5C 231.5,130.833 231.5,131.167 231.5,131.5C 209.5,131.5 187.5,131.5 165.5,131.5C 165.207,119.45 165.541,107.45 166.5,95.5C 167.167,95.1667 167.833,94.8333 168.5,94.5 Z"/></g>
<g><path style="opacity:1" fill="#5ab0b9" d="M 261.5,127.5 C 257.793,132.208 253.46,136.208 248.5,139.5C 248.414,138.504 248.748,137.671 249.5,137C 253.394,133.596 257.394,130.429 261.5,127.5 Z"/></g>
<g><path style="opacity:1" fill="#60b9c2" d="M 70.5,101.5 C 70.8333,101.5 71.1667,101.5 71.5,101.5C 71.1872,105.042 71.5206,108.375 72.5,111.5C 72.804,114.522 73.304,117.522 74,120.5C 74.3826,121.056 74.8826,121.389 75.5,121.5C 77.3174,126.169 79.8174,130.502 83,134.5C 98.3289,147.559 116.162,155.559 136.5,158.5C 138.607,159.468 140.941,159.802 143.5,159.5C 143.5,159.833 143.5,160.167 143.5,160.5C 135.252,160.583 127.252,159.25 119.5,156.5C 118.833,156.5 118.167,156.5 117.5,156.5C 116.791,155.596 115.791,155.263 114.5,155.5C 112.967,153.755 110.967,152.755 108.5,152.5C 92.7269,146.383 80.7269,136.05 72.5,121.5C 71.0541,114.93 70.3874,108.264 70.5,101.5 Z"/></g>
<g><path style="opacity:1" fill="#e5fefe" d="M 166.5,95.5 C 165.541,107.45 165.207,119.45 165.5,131.5C 187.5,131.5 209.5,131.5 231.5,131.5C 213.338,132.332 195.005,132.832 176.5,133C 173.11,133.246 169.777,133.746 166.5,134.5C 165.833,134.167 165.167,133.833 164.5,133.5C 163.335,126.189 163.169,118.856 164,111.5C 163.878,105.74 164.711,100.407 166.5,95.5 Z"/></g>
<g><path style="opacity:1" fill="#51bdc1" d="M 87.5,126.5 C 90.8744,130.876 94.8744,134.542 99.5,137.5C 102.161,140.502 105.495,142.502 109.5,143.5C 110.167,144.167 110.833,144.833 111.5,145.5C 108.786,145.75 106.119,145.917 103.5,146C 101.393,144.736 100.393,142.903 100.5,140.5C 98.8333,140.5 97.1667,140.5 95.5,140.5C 95.6567,139.127 95.49,137.793 95,136.5C 92.0271,134.194 89.3605,131.527 87,128.5C 86.3083,127.563 86.475,126.897 87.5,126.5 Z"/></g>
<g><path style="opacity:1" fill="#dcfbfb" d="M 99.5,137.5 C 103.779,137.971 107.112,139.971 109.5,143.5C 105.495,142.502 102.161,140.502 99.5,137.5 Z"/></g>
<g><path style="opacity:1" fill="#dcf9fa" d="M 266.5,122.5 C 266.108,124.179 265.608,125.846 265,127.5C 262.929,128.103 261.762,129.436 261.5,131.5C 255.861,137.214 250.194,142.381 244.5,147C 238.675,149.08 232.675,150.247 226.5,150.5C 226.192,148.076 226.526,145.743 227.5,143.5C 233.834,139.666 240.501,136.333 247.5,133.5C 241.863,138.326 235.53,142.159 228.5,145C 227.005,148.841 228.339,150.174 232.5,149C 238.062,146.059 243.395,142.892 248.5,139.5C 253.46,136.208 257.793,132.208 261.5,127.5C 263.395,126.027 265.061,124.36 266.5,122.5 Z"/></g>
<g><path style="opacity:1" fill="#47c0d0" d="M 78.5,111.5 C 77.7526,114.821 78.0859,118.154 79.5,121.5C 80.9905,122.244 82.4905,122.91 84,123.5C 84.4643,122.906 84.631,122.239 84.5,121.5C 84.8333,121.5 85.1667,121.5 85.5,121.5C 85.8925,123.284 86.5592,124.95 87.5,126.5C 86.475,126.897 86.3083,127.563 87,128.5C 89.3605,131.527 92.0271,134.194 95,136.5C 95.49,137.793 95.6567,139.127 95.5,140.5C 97.1667,140.5 98.8333,140.5 100.5,140.5C 100.393,142.903 101.393,144.736 103.5,146C 106.119,145.917 108.786,145.75 111.5,145.5C 112.833,145.833 114.167,146.167 115.5,146.5C 117.5,147.833 119.5,149.167 121.5,150.5C 127.308,153.118 133.308,155.118 139.5,156.5C 138.5,157.167 137.5,157.833 136.5,158.5C 116.162,155.559 98.3289,147.559 83,134.5C 79.8174,130.502 77.3174,126.169 75.5,121.5C 75.6897,117.705 76.6897,114.372 78.5,111.5 Z"/></g>
<g><path style="opacity:1" fill="#e0fbfc" d="M 115.5,146.5 C 117.857,146.337 120.19,146.503 122.5,147C 121.366,148.016 121.699,148.683 123.5,149C 133.932,151.152 144.265,153.486 154.5,156C 163.854,156.442 173.188,156.442 182.5,156C 184.706,158.209 185.04,160.709 183.5,163.5C 170.339,164.825 157.339,164.825 144.5,163.5C 157.344,163.829 170.011,163.495 182.5,162.5C 183.87,158.949 182.536,157.282 178.5,157.5C 177.5,157.5 176.5,157.5 175.5,157.5C 165.459,157.756 155.459,157.256 145.5,156C 137.518,154.103 129.518,152.27 121.5,150.5C 119.5,149.167 117.5,147.833 115.5,146.5 Z"/></g>
<g><path style="opacity:1" fill="#b8f1ec" d="M 108.5,152.5 C 110.967,152.755 112.967,153.755 114.5,155.5C 111.911,155.539 109.911,154.539 108.5,152.5 Z"/></g>
<g><path style="opacity:1" fill="#65bcc2" d="M 121.5,150.5 C 129.518,152.27 137.518,154.103 145.5,156C 155.459,157.256 165.459,157.756 175.5,157.5C 164.992,158.624 154.326,158.624 143.5,157.5C 142.432,156.566 141.099,156.232 139.5,156.5C 133.308,155.118 127.308,153.118 121.5,150.5 Z"/></g>
<g><path style="opacity:1" fill="#4bbad4" d="M 139.5,156.5 C 141.099,156.232 142.432,156.566 143.5,157.5C 143.5,158.167 143.5,158.833 143.5,159.5C 140.941,159.802 138.607,159.468 136.5,158.5C 137.5,157.833 138.5,157.167 139.5,156.5 Z"/></g>
<g><path style="opacity:1" fill="#48c0c7" d="M 143.5,157.5 C 154.326,158.624 164.992,158.624 175.5,157.5C 176.5,157.5 177.5,157.5 178.5,157.5C 180.931,158.741 180.931,159.908 178.5,161C 170.323,161.171 162.323,161.671 154.5,162.5C 150.575,162.57 146.909,161.903 143.5,160.5C 143.5,160.167 143.5,159.833 143.5,159.5C 143.5,158.833 143.5,158.167 143.5,157.5 Z"/></g>
<g><path style="opacity:1" fill="#cff8fa" d="M 119.5,156.5 C 127.252,159.25 135.252,160.583 143.5,160.5C 146.909,161.903 150.575,162.57 154.5,162.5C 163.833,162.5 173.167,162.5 182.5,162.5C 170.011,163.495 157.344,163.829 144.5,163.5C 137.194,162.127 129.861,160.627 122.5,159C 121.058,158.623 120.058,157.79 119.5,156.5 Z"/></g>
<g><path style="opacity:1" fill="#6ab7c1" d="M 178.5,157.5 C 182.536,157.282 183.87,158.949 182.5,162.5C 173.167,162.5 163.833,162.5 154.5,162.5C 162.323,161.671 170.323,161.171 178.5,161C 180.931,159.908 180.931,158.741 178.5,157.5 Z"/></g>
<g><path style="opacity:1" fill="#eafcfa" d="M 155.5,190.5 C 154.89,191.391 154.557,192.391 154.5,193.5C 153.209,193.263 152.209,193.596 151.5,194.5C 150.5,193.167 149.5,193.167 148.5,194.5C 148.158,193.662 147.492,193.328 146.5,193.5C 147.794,189.237 150.294,185.904 154,183.5C 158.124,185.076 158.624,187.41 155.5,190.5 Z"/></g>
<g><path style="opacity:1" fill="#73ada7" d="M 155.5,190.5 C 154.5,190.5 153.5,190.5 152.5,190.5C 152.5,189.5 152.5,188.5 152.5,187.5C 153.5,187.5 154.5,187.5 155.5,187.5C 155.5,188.5 155.5,189.5 155.5,190.5 Z"/></g>
<g><path style="opacity:1" fill="#5cb5b9" d="M 83.5,187.5 C 87.0271,191.2 87.3604,195.2 84.5,199.5C 88.455,203.629 88.455,207.796 84.5,212C 79.8452,212.499 75.1785,212.666 70.5,212.5C 70.5,204.167 70.5,195.833 70.5,187.5C 74.8333,187.5 79.1667,187.5 83.5,187.5 Z"/></g>
<g><path style="opacity:1" fill="#bff8fb" d="M 82.5,191.5 C 79.9407,191.198 77.6074,191.532 75.5,192.5C 74.5489,193.919 74.2155,195.585 74.5,197.5C 76.8333,197.5 79.1667,197.5 81.5,197.5C 79.0521,198.473 76.3854,198.806 73.5,198.5C 73.5,195.833 73.5,193.167 73.5,190.5C 76.7131,190.19 79.7131,190.523 82.5,191.5 Z"/></g>
<g><path style="opacity:1" fill="#e2fdfd" d="M 82.5,191.5 C 83.1386,192.097 83.472,192.93 83.5,194C 83.6134,195.699 82.9468,196.866 81.5,197.5C 79.1667,197.5 76.8333,197.5 74.5,197.5C 74.2155,195.585 74.5489,193.919 75.5,192.5C 77.6074,191.532 79.9407,191.198 82.5,191.5 Z"/></g>
<g><path style="opacity:1" fill="#a3c8c2" d="M 144.5,194.5 C 144.5,194.167 144.5,193.833 144.5,193.5C 145.167,193.5 145.833,193.5 146.5,193.5C 147.492,193.328 148.158,193.662 148.5,194.5C 148.5,195.167 148.167,195.5 147.5,195.5C 146.791,194.596 145.791,194.263 144.5,194.5 Z"/></g>
<g><path style="opacity:1" fill="#faf8f9" d="M 75.5,192.5 C 77.8333,192.5 80.1667,192.5 82.5,192.5C 82.5,193.5 82.5,194.5 82.5,195.5C 80.4086,195.318 78.4086,195.652 76.5,196.5C 75.5713,195.311 75.238,193.978 75.5,192.5 Z"/></g>
<g><path style="opacity:1" fill="#67bfc1" d="M 107.5,197.5 C 106.167,197.5 105.5,198.167 105.5,199.5C 99.8462,194.752 96.5129,196.085 95.5,203.5C 95.5129,208.999 98.1795,210.832 103.5,209C 104.044,208.283 104.711,207.783 105.5,207.5C 105.586,208.496 105.252,209.329 104.5,210C 102.5,210.333 100.5,210.667 98.5,211C 97.944,211.383 97.6107,211.883 97.5,212.5C 95.9699,211.789 94.6366,210.789 93.5,209.5C 91.7739,207.18 91.1072,204.513 91.5,201.5C 93.9076,194.799 98.5743,192.632 105.5,195C 106.381,195.708 107.047,196.542 107.5,197.5 Z"/></g>
<g><path style="opacity:1" fill="#8ed7d8" d="M 133.5,185.5 C 134.833,185.5 136.167,185.5 137.5,185.5C 137.5,190.167 137.5,194.833 137.5,199.5C 136.834,195.316 136.167,190.982 135.5,186.5C 134.502,195.141 134.169,203.808 134.5,212.5C 133.507,203.682 133.173,194.682 133.5,185.5 Z"/></g>
<g><path style="opacity:1" fill="#b6f1ed" d="M 163.5,193.5 C 166.385,193.194 169.052,193.527 171.5,194.5C 168.635,194.055 166.135,194.722 164,196.5C 163.536,195.906 163.369,195.239 163.5,194.5C 163.5,194.167 163.5,193.833 163.5,193.5 Z"/></g>
<g><path style="opacity:1" fill="#c4eaf3" d="M 195.5,193.5 C 196.479,196.625 196.813,199.958 196.5,203.5C 196.5,205.5 196.5,207.5 196.5,209.5C 196.274,212.249 196.607,214.916 197.5,217.5C 195.27,218.783 192.937,219.783 190.5,220.5C 190.833,219.833 191.167,219.167 191.5,218.5C 193.411,218.426 194.578,217.426 195,215.5C 195.831,208.476 195.664,201.476 194.5,194.5C 193.817,194.863 193.15,195.196 192.5,195.5C 192.821,193.952 193.821,193.285 195.5,193.5 Z"/></g>
<g><path style="opacity:1" fill="#5fb8bf" d="M 137.5,199.5 C 137.369,200.239 137.536,200.906 138,201.5C 140.183,199.093 142.35,196.76 144.5,194.5C 145.791,194.263 146.791,194.596 147.5,195.5C 146.017,197.094 144.517,198.76 143,200.5C 142.421,201.928 142.588,203.262 143.5,204.5C 145.53,206.537 147.196,208.87 148.5,211.5C 148,211.833 147.5,212.167 147,212.5C 144.392,210.65 142.225,208.316 140.5,205.5C 139.675,204.614 138.675,204.281 137.5,204.5C 137.5,206.5 137.5,208.5 137.5,210.5C 136.778,211.551 135.778,212.218 134.5,212.5C 134.169,203.808 134.502,195.141 135.5,186.5C 136.167,190.982 136.834,195.316 137.5,199.5 Z"/></g>
<g><path style="opacity:1" fill="#5fbab5" d="M 124.5,195.5 C 123.833,195.5 123.5,195.833 123.5,196.5C 119.818,195.725 117.318,197.059 116,200.5C 114.997,204.476 116.164,207.476 119.5,209.5C 120.952,210.302 122.618,210.802 124.5,211C 123.944,211.383 123.611,211.883 123.5,212.5C 115.226,212.218 111.559,207.884 112.5,199.5C 114.39,195.96 117.39,193.96 121.5,193.5C 123.038,193.453 124.038,194.12 124.5,195.5 Z"/></g>
<g><path style="opacity:1" fill="#d5fbfd" d="M 137.5,185.5 C 138.325,189.647 138.825,193.981 139,198.5C 140.02,197.109 140.853,195.609 141.5,194C 142.448,193.517 143.448,193.351 144.5,193.5C 144.5,193.833 144.5,194.167 144.5,194.5C 142.35,196.76 140.183,199.093 138,201.5C 137.536,200.906 137.369,200.239 137.5,199.5C 137.5,194.833 137.5,190.167 137.5,185.5 Z"/></g>
<g><path style="opacity:1" fill="#faf8fd" d="M 105.5,201.5 C 105.5,203.167 105.5,204.833 105.5,206.5C 104.5,206.5 103.5,206.5 102.5,206.5C 102.5,204.833 102.5,203.167 102.5,201.5C 100.219,201.077 98.5521,201.744 97.5,203.5C 96.5141,199.658 98.1808,198.158 102.5,199C 103.373,200.045 104.373,200.878 105.5,201.5 Z"/></g>
<g><path style="opacity:1" fill="#e2fbfb" d="M 258.5,194.5 C 257.164,196.508 255.83,198.508 254.5,200.5C 254.649,199.448 254.483,198.448 254,197.5C 252.736,199.607 250.903,200.607 248.5,200.5C 248.364,203.551 248.698,206.551 249.5,209.5C 249.547,211.038 248.88,212.038 247.5,212.5C 247.173,207.456 247.506,202.456 248.5,197.5C 249.931,197.023 251.264,196.357 252.5,195.5C 250.394,194.919 248.394,194.586 246.5,194.5C 246.158,193.662 245.492,193.328 244.5,193.5C 248.724,191.688 253.057,191.021 257.5,191.5C 257.263,192.791 257.596,193.791 258.5,194.5 Z"/></g>
<g><path style="opacity:1" fill="#ddf9f9" d="M 109.5,199.5 C 110.5,200.833 111.5,200.833 112.5,199.5C 111.559,207.884 115.226,212.218 123.5,212.5C 117.683,214.886 113.35,213.219 110.5,207.5C 109.756,208.991 109.09,210.491 108.5,212C 105.05,213.429 101.717,213.595 98.5,212.5C 103.503,213.009 106.836,211.009 108.5,206.5C 109.468,204.393 109.802,202.059 109.5,199.5 Z"/></g>
<g><path style="opacity:1" fill="#fdf5fd" d="M 123.5,198.5 C 123.5,199.5 123.5,200.5 123.5,201.5C 120.5,201.167 119.167,202.5 119.5,205.5C 124.169,204.99 125.169,206.323 122.5,209.5C 122.167,209.5 121.833,209.5 121.5,209.5C 117.832,207.608 116.665,204.608 118,200.5C 119.444,198.845 121.278,198.178 123.5,198.5 Z"/></g>
<g><path style="opacity:1" fill="#f4fafc" d="M 151.5,194.5 C 151.5,196.167 151.5,197.833 151.5,199.5C 150.677,202.977 150.177,206.644 150,210.5C 149.246,206.911 147.079,204.911 143.5,204.5C 142.588,203.262 142.421,201.928 143,200.5C 144.517,198.76 146.017,197.094 147.5,195.5C 148.167,195.5 148.5,195.167 148.5,194.5C 149.5,193.167 150.5,193.167 151.5,194.5 Z"/></g>
<g><path style="opacity:1" fill="#eafbfa" d="M 195.5,193.5 C 193.821,193.285 192.821,193.952 192.5,195.5C 187.595,193.433 183.595,194.433 180.5,198.5C 179.362,201.304 179.195,204.304 180,207.5C 181.481,208.471 182.315,209.804 182.5,211.5C 181.206,210.71 180.039,209.71 179,208.5C 178.667,208.833 178.333,209.167 178,209.5C 178.707,211.311 179.207,213.311 179.5,215.5C 177.167,215.5 174.833,215.5 172.5,215.5C 172.5,214.5 172.5,213.5 172.5,212.5C 173.5,212.5 174.5,212.5 175.5,212.5C 175.746,206.441 175.413,200.441 174.5,194.5C 176.582,194.472 178.416,195.139 180,196.5C 180.465,195.069 181.299,193.903 182.5,193C 185.224,192.73 187.891,192.23 190.5,191.5C 191.466,189.604 191.799,187.604 191.5,185.5C 196.062,185.279 196.728,186.779 193.5,190C 194.973,190.71 195.64,191.876 195.5,193.5 Z"/></g>
<g><path style="opacity:1" fill="#f5feee" d="M 102.5,206.5 C 99.9664,206.741 98.2998,205.741 97.5,203.5C 98.5521,201.744 100.219,201.077 102.5,201.5C 102.5,203.167 102.5,204.833 102.5,206.5 Z"/></g>
<g><path style="opacity:1" fill="#8bdcdc" d="M 107.5,197.5 C 108.833,197.5 109.5,198.167 109.5,199.5C 109.802,202.059 109.468,204.393 108.5,206.5C 108.736,203.391 108.403,200.391 107.5,197.5 Z"/></g>
<g><path style="opacity:1" fill="#7bbfc7" d="M 163.5,193.5 C 163.5,193.833 163.5,194.167 163.5,194.5C 161.547,200.074 160.88,206.074 161.5,212.5C 160.511,207.025 160.178,201.358 160.5,195.5C 160.821,193.952 161.821,193.285 163.5,193.5 Z"/></g>
<g><path style="opacity:1" fill="#59b5ba" d="M 163.5,194.5 C 163.369,195.239 163.536,195.906 164,196.5C 166.135,194.722 168.635,194.055 171.5,194.5C 172.5,194.5 173.5,194.5 174.5,194.5C 175.413,200.441 175.746,206.441 175.5,212.5C 174.5,212.5 173.5,212.5 172.5,212.5C 172.666,208.154 172.499,203.821 172,199.5C 169.333,195.5 166.667,195.5 164,199.5C 164.108,204.28 163.275,208.614 161.5,212.5C 160.88,206.074 161.547,200.074 163.5,194.5 Z"/></g>
<g><path style="opacity:1" fill="#e6fafe" d="M 105.5,199.5 C 105.5,199.833 105.5,200.167 105.5,200.5C 105.5,200.833 105.5,201.167 105.5,201.5C 104.373,200.878 103.373,200.045 102.5,199C 98.1808,198.158 96.5141,199.658 97.5,203.5C 98.2998,205.741 99.9664,206.741 102.5,206.5C 103.5,206.5 104.5,206.5 105.5,206.5C 105.5,206.833 105.5,207.167 105.5,207.5C 104.711,207.783 104.044,208.283 103.5,209C 98.1795,210.832 95.5129,208.999 95.5,203.5C 96.5129,196.085 99.8462,194.752 105.5,199.5 Z"/></g>
<g><path style="opacity:1" fill="#d0f9fb" d="M 123.5,196.5 C 123.833,197.167 124.167,197.833 124.5,198.5C 124.167,198.5 123.833,198.5 123.5,198.5C 121.278,198.178 119.444,198.845 118,200.5C 116.665,204.608 117.832,207.608 121.5,209.5C 120.833,209.5 120.167,209.5 119.5,209.5C 116.164,207.476 114.997,204.476 116,200.5C 117.318,197.059 119.818,195.725 123.5,196.5 Z"/></g>
<g><path style="opacity:1" fill="#e6fcf9" d="M 123.5,198.5 C 123.833,198.5 124.167,198.5 124.5,198.5C 125.117,198.611 125.617,198.944 126,199.5C 126.667,202.167 126.667,204.833 126,207.5C 125.184,208.823 124.017,209.489 122.5,209.5C 125.169,206.323 124.169,204.99 119.5,205.5C 119.167,202.5 120.5,201.167 123.5,201.5C 123.5,200.5 123.5,199.5 123.5,198.5 Z"/></g>
<g><path style="opacity:1" fill="#f0fbfa" d="M 184.5,198.5 C 186.861,198.674 189.194,199.007 191.5,199.5C 191.5,202.5 191.5,205.5 191.5,208.5C 184.814,210.487 182.148,207.82 183.5,200.5C 183.328,199.508 183.662,198.842 184.5,198.5 Z"/></g>
<g><path style="opacity:1" fill="#ccfbfd" d="M 192.5,199.5 C 192.81,202.713 192.477,205.713 191.5,208.5C 191.5,205.5 191.5,202.5 191.5,199.5C 189.194,199.007 186.861,198.674 184.5,198.5C 187.474,195.691 190.141,196.024 192.5,199.5 Z"/></g>
<g><path style="opacity:1" fill="#6ac1c6" d="M 270.5,197.5 C 271.45,200.068 271.45,202.568 270.5,205C 266.044,204.898 262.044,205.732 258.5,207.5C 258.5,207.833 258.5,208.167 258.5,208.5C 257.833,208.5 257.167,208.5 256.5,208.5C 254.96,206.162 254.294,203.495 254.5,200.5C 255.83,198.508 257.164,196.508 258.5,194.5C 263.208,192.708 267.208,193.708 270.5,197.5 Z"/></g>
<g><path style="opacity:1" fill="#e7fcf9" d="M 259.5,197.5 C 261.857,197.337 264.19,197.503 266.5,198C 267.337,199.011 267.67,200.178 267.5,201.5C 264.833,201.5 262.167,201.5 259.5,201.5C 259.5,200.167 259.5,198.833 259.5,197.5 Z"/></g>
<g><path style="opacity:1" fill="#61b7c4" d="M 246.5,194.5 C 248.394,194.586 250.394,194.919 252.5,195.5C 251.264,196.357 249.931,197.023 248.5,197.5C 247.506,202.456 247.173,207.456 247.5,212.5C 246.5,212.5 245.5,212.5 244.5,212.5C 243.88,206.074 244.547,200.074 246.5,194.5 Z"/></g>
<g><path style="opacity:1" fill="#a8e7eb" d="M 83.5,207.5 C 82.8249,202.314 79.8249,200.314 74.5,201.5C 74.5,204.167 74.5,206.833 74.5,209.5C 76.8333,209.5 79.1667,209.5 81.5,209.5C 79.0521,210.473 76.3854,210.806 73.5,210.5C 73.5,207.167 73.5,203.833 73.5,200.5C 76.9783,200.184 80.3117,200.684 83.5,202C 84.807,203.943 84.807,205.777 83.5,207.5 Z"/></g>
<g><path style="opacity:1" fill="#77bdc8" d="M 105.5,200.5 C 106.283,202.343 106.95,204.343 107.5,206.5C 107.043,207.298 106.376,207.631 105.5,207.5C 105.5,207.167 105.5,206.833 105.5,206.5C 105.5,204.833 105.5,203.167 105.5,201.5C 105.5,201.167 105.5,200.833 105.5,200.5 Z"/></g>
<g><path style="opacity:1" fill="#9ddde1" d="M 154.5,193.5 C 155.167,193.5 155.5,193.833 155.5,194.5C 155.5,200.167 155.5,205.833 155.5,211.5C 155.5,212.167 155.5,212.833 155.5,213.5C 154.167,213.5 152.833,213.5 151.5,213.5C 151.5,208.833 151.5,204.167 151.5,199.5C 151.5,197.833 151.5,196.167 151.5,194.5C 152.209,193.596 153.209,193.263 154.5,193.5 Z"/></g>
<g><path style="opacity:1" fill="#54b1b4" d="M 152.5,194.5 C 153.816,197.087 154.483,200.087 154.5,203.5C 154.167,206.5 153.833,209.5 153.5,212.5C 152.504,206.537 152.171,200.537 152.5,194.5 Z"/></g>
<g><path style="opacity:1" fill="#eafcfd" d="M 270.5,197.5 C 271.117,197.611 271.617,197.944 272,198.5C 272.499,203.155 272.666,207.821 272.5,212.5C 269.506,213.154 266.506,213.821 263.5,214.5C 261.955,214.489 260.622,214.156 259.5,213.5C 262.059,213.802 264.393,213.468 266.5,212.5C 272.039,209.42 271.706,208.42 265.5,209.5C 262.892,209.6 260.558,208.933 258.5,207.5C 262.044,205.732 266.044,204.898 270.5,205C 271.45,202.568 271.45,200.068 270.5,197.5 Z"/></g>
<g><path style="opacity:1" fill="#f0fcfc" d="M 83.5,207.5 C 82.8333,208.167 82.1667,208.833 81.5,209.5C 79.1667,209.5 76.8333,209.5 74.5,209.5C 74.5,206.833 74.5,204.167 74.5,201.5C 79.8249,200.314 82.8249,202.314 83.5,207.5 Z"/></g>
<g><path style="opacity:1" fill="#e5fcfb" d="M 220.5,195.5 C 218.965,196.788 217.299,196.788 215.5,195.5C 214.389,191.676 212.055,190.676 208.5,192.5C 206.994,194.655 205.994,196.988 205.5,199.5C 206.529,202.514 207.529,205.514 208.5,208.5C 209.873,208.657 211.207,208.49 212.5,208C 213.939,205.775 215.606,203.775 217.5,202C 219.936,201.876 222.269,202.376 224.5,203.5C 224.337,205.857 224.503,208.19 225,210.5C 225.816,211.823 226.983,212.489 228.5,212.5C 229.833,212.5 231.167,212.5 232.5,212.5C 234.785,211.454 237.118,211.454 239.5,212.5C 239.666,207.156 239.499,201.823 239,196.5C 238.283,195.956 237.783,195.289 237.5,194.5C 238.688,193.316 239.855,193.316 241,194.5C 240.502,196.527 240.669,198.527 241.5,200.5C 242.169,198.369 242.835,196.369 243.5,194.5C 243.177,200.69 243.51,206.69 244.5,212.5C 245.5,212.5 246.5,212.5 247.5,212.5C 246.816,214.185 245.483,215.185 243.5,215.5C 240.572,214.079 239.238,215.079 239.5,218.5C 238.167,218.5 236.833,218.5 235.5,218.5C 235.33,217.178 235.663,216.011 236.5,215C 231.061,214.906 225.894,213.74 221,211.5C 215.369,213.708 209.536,214.041 203.5,212.5C 203,211.5 202.5,210.5 202,209.5C 201.781,210.938 201.281,212.271 200.5,213.5C 199.479,211.812 198.145,210.479 196.5,209.5C 196.5,207.5 196.5,205.5 196.5,203.5C 197.458,203.953 198.292,204.619 199,205.5C 199.227,200.103 199.894,194.769 201,189.5C 202.713,187.807 204.713,186.474 207,185.5C 207.483,184.552 207.649,183.552 207.5,182.5C 211.71,183.316 215.71,184.816 219.5,187C 221.552,189.774 221.886,192.607 220.5,195.5 Z"/></g>
<g><path style="opacity:1" fill="#63bbc3" d="M 237.5,194.5 C 237.783,195.289 238.283,195.956 239,196.5C 239.499,201.823 239.666,207.156 239.5,212.5C 237.118,211.454 234.785,211.454 232.5,212.5C 231.552,211.022 230.219,210.022 228.5,209.5C 227.375,210.348 227.375,211.348 228.5,212.5C 226.983,212.489 225.816,211.823 225,210.5C 224.503,208.19 224.337,205.857 224.5,203.5C 224.833,203.5 225.167,203.5 225.5,203.5C 226.82,202.058 228.486,201.392 230.5,201.5C 232.5,201.5 234.5,201.5 236.5,201.5C 236.737,200.209 236.404,199.209 235.5,198.5C 232.939,197.233 230.272,197.233 227.5,198.5C 226.761,198.631 226.094,198.464 225.5,198C 226.381,197.292 227.047,196.458 227.5,195.5C 230.563,193.303 233.896,192.97 237.5,194.5 Z"/></g>
<g><path style="opacity:1" fill="#e5fafe" d="M 228.5,209.5 C 227.272,207.99 227.272,206.49 228.5,205C 230.81,204.503 233.143,204.337 235.5,204.5C 235.714,206.144 235.38,207.644 234.5,209C 232.527,209.495 230.527,209.662 228.5,209.5 Z"/></g>
<g><path style="opacity:1" fill="#a1efe4" d="M 235.5,198.5 C 236.404,199.209 236.737,200.209 236.5,201.5C 234.5,201.5 232.5,201.5 230.5,201.5C 232.531,201.028 234.198,200.028 235.5,198.5 Z"/></g>
<g><path style="opacity:1" fill="#e7fcfc" d="M 235.5,198.5 C 234.198,200.028 232.531,201.028 230.5,201.5C 228.486,201.392 226.82,202.058 225.5,203.5C 225.5,202.167 225.5,200.833 225.5,199.5C 226.492,199.672 227.158,199.338 227.5,198.5C 230.272,197.233 232.939,197.233 235.5,198.5 Z"/></g>
<g><path style="opacity:1" fill="#94d5d1" d="M 227.5,195.5 C 227.047,196.458 226.381,197.292 225.5,198C 226.094,198.464 226.761,198.631 227.5,198.5C 227.158,199.338 226.492,199.672 225.5,199.5C 224.024,197.291 224.691,195.958 227.5,195.5 Z"/></g>
<g><path style="opacity:1" fill="#6fb9be" d="M 220.5,195.5 C 219.167,195.5 217.833,195.5 216.5,195.5C 216.703,193.61 216.037,192.11 214.5,191C 210.726,189.817 207.559,190.651 205,193.5C 203.751,199.282 204.585,204.615 207.5,209.5C 207.5,210.5 207.5,211.5 207.5,212.5C 204.177,210.898 202.011,208.231 201,204.5C 198.152,192.04 202.985,186.54 215.5,188C 218.308,189.793 219.974,192.293 220.5,195.5 Z"/></g>
<g><path style="opacity:1" fill="#93dbe4" d="M 244.5,193.5 C 245.492,193.328 246.158,193.662 246.5,194.5C 244.547,200.074 243.88,206.074 244.5,212.5C 243.51,206.69 243.177,200.69 243.5,194.5C 243.5,193.833 243.833,193.5 244.5,193.5 Z"/></g>
<g><path style="opacity:1" fill="#daf8f9" d="M 83.5,187.5 C 85.1439,187.286 86.6439,187.62 88,188.5C 88.5343,192.859 88.3676,197.192 87.5,201.5C 88.8333,201.5 90.1667,201.5 91.5,201.5C 91.1072,204.513 91.7739,207.18 93.5,209.5C 91.8828,208.962 90.2161,208.629 88.5,208.5C 88.7135,210.144 88.3802,211.644 87.5,213C 82.2247,214.359 76.8913,214.692 71.5,214C 70.944,213.617 70.6107,213.117 70.5,212.5C 75.1785,212.666 79.8452,212.499 84.5,212C 88.455,207.796 88.455,203.629 84.5,199.5C 87.3604,195.2 87.0271,191.2 83.5,187.5 Z"/></g>
<g><path style="opacity:1" fill="#64bdc8" d="M 180.5,198.5 C 180.192,200.924 180.526,203.257 181.5,205.5C 182.17,203.709 182.837,202.042 183.5,200.5C 182.148,207.82 184.814,210.487 191.5,208.5C 192.477,205.713 192.81,202.713 192.5,199.5C 193.377,203.322 194.044,207.322 194.5,211.5C 194.36,213.03 193.693,214.03 192.5,214.5C 192.719,213.325 192.386,212.325 191.5,211.5C 189.253,212.374 186.92,212.708 184.5,212.5C 184.167,212.5 183.833,212.5 183.5,212.5C 183.5,211.833 183.167,211.5 182.5,211.5C 182.315,209.804 181.481,208.471 180,207.5C 179.195,204.304 179.362,201.304 180.5,198.5 Z"/></g>
<g><path style="opacity:1" fill="#a3e4e4" d="M 258.5,208.5 C 258.5,208.167 258.5,207.833 258.5,207.5C 260.558,208.933 262.892,209.6 265.5,209.5C 263.03,210.878 260.696,210.545 258.5,208.5 Z"/></g>
<g><path style="opacity:1" fill="#66bcc0" d="M 124.5,195.5 C 126.514,195.392 128.18,196.058 129.5,197.5C 129.5,198.5 129.5,199.5 129.5,200.5C 130.258,205.271 128.925,209.271 125.5,212.5C 124.833,212.5 124.167,212.5 123.5,212.5C 123.611,211.883 123.944,211.383 124.5,211C 122.618,210.802 120.952,210.302 119.5,209.5C 120.167,209.5 120.833,209.5 121.5,209.5C 121.833,209.5 122.167,209.5 122.5,209.5C 124.017,209.489 125.184,208.823 126,207.5C 126.667,204.833 126.667,202.167 126,199.5C 125.617,198.944 125.117,198.611 124.5,198.5C 124.167,197.833 123.833,197.167 123.5,196.5C 123.5,195.833 123.833,195.5 124.5,195.5 Z"/></g>
<g><path style="opacity:1" fill="#caf5f6" d="M 129.5,200.5 C 130.533,201.912 131.199,203.578 131.5,205.5C 130.424,207.986 129.091,210.319 127.5,212.5C 126.833,212.5 126.167,212.5 125.5,212.5C 128.925,209.271 130.258,205.271 129.5,200.5 Z"/></g>
<g><path style="opacity:1" fill="#60b1aa" d="M 256.5,208.5 C 257.167,208.5 257.833,208.5 258.5,208.5C 260.696,210.545 263.03,210.878 265.5,209.5C 271.706,208.42 272.039,209.42 266.5,212.5C 263.763,212.599 261.096,212.265 258.5,211.5C 257.449,210.778 256.782,209.778 256.5,208.5 Z"/></g>
<g><path style="opacity:1" fill="#53b2ae" d="M 107.5,197.5 C 108.403,200.391 108.736,203.391 108.5,206.5C 106.836,211.009 103.503,213.009 98.5,212.5C 98.1667,212.5 97.8333,212.5 97.5,212.5C 97.6107,211.883 97.944,211.383 98.5,211C 100.5,210.667 102.5,210.333 104.5,210C 105.252,209.329 105.586,208.496 105.5,207.5C 106.376,207.631 107.043,207.298 107.5,206.5C 106.95,204.343 106.283,202.343 105.5,200.5C 105.5,200.167 105.5,199.833 105.5,199.5C 105.5,198.167 106.167,197.5 107.5,197.5 Z"/></g>
<g><path style="opacity:1" fill="#e2fbfb" d="M 155.5,194.5 C 156.166,198.021 156.833,201.687 157.5,205.5C 158.086,205.291 158.586,204.957 159,204.5C 159.181,201.305 159.681,198.305 160.5,195.5C 160.178,201.358 160.511,207.025 161.5,212.5C 163.275,208.614 164.108,204.28 164,199.5C 166.667,195.5 169.333,195.5 172,199.5C 172.499,203.821 172.666,208.154 172.5,212.5C 171.532,210.393 171.198,208.059 171.5,205.5C 170.167,205.5 168.833,205.5 167.5,205.5C 167.357,203.738 167.691,202.071 168.5,200.5C 167.675,199.614 166.675,199.281 165.5,199.5C 165.848,204.222 166.515,208.889 167.5,213.5C 164.708,213.452 162.875,214.785 162,217.5C 161.751,216.376 161.251,215.376 160.5,214.5C 159.833,215.833 159.167,217.167 158.5,218.5C 158.27,214.846 157.937,211.179 157.5,207.5C 156.828,208.949 156.161,210.282 155.5,211.5C 155.5,205.833 155.5,200.167 155.5,194.5 Z"/></g>
<g><path style="opacity:1" fill="#61b8b2" d="M 207.5,212.5 C 207.5,211.5 207.5,210.5 207.5,209.5C 210.247,209.813 212.914,209.48 215.5,208.5C 216.246,207.264 216.579,205.93 216.5,204.5C 217.978,204.238 219.311,204.571 220.5,205.5C 218.353,211.742 214.02,214.075 207.5,212.5 Z"/></g>
<g><path style="opacity:1" fill="#4cb0a4" d="M 228.5,209.5 C 230.219,210.022 231.552,211.022 232.5,212.5C 231.167,212.5 229.833,212.5 228.5,212.5C 227.375,211.348 227.375,210.348 228.5,209.5 Z"/></g>
<g><path style="opacity:1" fill="#a7e8e0" d="M 258.5,211.5 C 261.096,212.265 263.763,212.599 266.5,212.5C 264.393,213.468 262.059,213.802 259.5,213.5C 259.167,212.833 258.833,212.167 258.5,211.5 Z"/></g>
<g><path style="opacity:1" fill="#e1fbfc" d="M 183.5,212.5 C 183.833,212.5 184.167,212.5 184.5,212.5C 186.292,213.309 188.292,213.809 190.5,214C 189.748,214.671 189.414,215.504 189.5,216.5C 188.903,217.139 188.07,217.472 187,217.5C 185.061,217.046 183.228,216.379 181.5,215.5C 181.932,214.29 182.599,213.29 183.5,212.5 Z"/></g>
<g><path style="opacity:1" fill="#c0f4f6" d="M 192.5,214.5 C 192.179,216.048 191.179,216.715 189.5,216.5C 189.414,215.504 189.748,214.671 190.5,214C 188.292,213.809 186.292,213.309 184.5,212.5C 186.92,212.708 189.253,212.374 191.5,211.5C 192.386,212.325 192.719,213.325 192.5,214.5 Z"/></g>
<g><path style="opacity:1" fill="#f1fdfb" d="M 133.5,185.5 C 133.173,194.682 133.507,203.682 134.5,212.5C 135.209,213.404 136.209,213.737 137.5,213.5C 137.5,212.5 137.5,211.5 137.5,210.5C 137.5,208.5 137.5,206.5 137.5,204.5C 138.675,204.281 139.675,204.614 140.5,205.5C 142.225,208.316 144.392,210.65 147,212.5C 147.5,212.167 148,211.833 148.5,211.5C 147.196,208.87 145.53,206.537 143.5,204.5C 147.079,204.911 149.246,206.911 150,210.5C 150.177,206.644 150.677,202.977 151.5,199.5C 151.5,204.167 151.5,208.833 151.5,213.5C 152.833,213.5 154.167,213.5 155.5,213.5C 154.679,217.505 152.845,218.171 150,215.5C 148.7,216.707 147.2,217.374 145.5,217.5C 145.405,214.728 144.071,212.728 141.5,211.5C 140.5,206.167 139.5,206.167 138.5,211.5C 139.392,215.292 141.725,217.792 145.5,219C 143.109,219.691 143.109,220.691 145.5,222C 144.437,223.188 143.103,223.688 141.5,223.5C 141.5,221.833 141.5,220.167 141.5,218.5C 139.278,218.822 137.444,218.155 136,216.5C 134.266,218.451 132.099,219.451 129.5,219.5C 129.762,220.978 129.429,222.311 128.5,223.5C 126.569,221.196 124.236,219.362 121.5,218C 124.377,216.873 127.377,216.206 130.5,216C 132.672,213.877 132.839,211.711 131,209.5C 130.578,211.426 129.411,212.426 127.5,212.5C 129.091,210.319 130.424,207.986 131.5,205.5C 131.199,203.578 130.533,201.912 129.5,200.5C 129.5,199.5 129.5,198.5 129.5,197.5C 130.151,198.091 130.818,198.757 131.5,199.5C 132.167,194.683 132.834,190.017 133.5,185.5 Z"/></g>
<g><path style="opacity:1" fill="#aacbd3" d="M 137.5,210.5 C 137.5,211.5 137.5,212.5 137.5,213.5C 136.209,213.737 135.209,213.404 134.5,212.5C 135.778,212.218 136.778,211.551 137.5,210.5 Z"/></g>
<g><path style="opacity:1" fill="#5ab1b6" d="M 192.5,195.5 C 193.15,195.196 193.817,194.863 194.5,194.5C 195.664,201.476 195.831,208.476 195,215.5C 194.578,217.426 193.411,218.426 191.5,218.5C 189.379,218.325 187.379,218.659 185.5,219.5C 182.821,219.475 181.488,218.142 181.5,215.5C 183.228,216.379 185.061,217.046 187,217.5C 188.07,217.472 188.903,217.139 189.5,216.5C 191.179,216.715 192.179,216.048 192.5,214.5C 193.693,214.03 194.36,213.03 194.5,211.5C 194.044,207.322 193.377,203.322 192.5,199.5C 190.141,196.024 187.474,195.691 184.5,198.5C 183.662,198.842 183.328,199.508 183.5,200.5C 182.837,202.042 182.17,203.709 181.5,205.5C 180.526,203.257 180.192,200.924 180.5,198.5C 183.595,194.433 187.595,193.433 192.5,195.5 Z"/></g>
<g><path style="opacity:1" fill="#82b0cd" d="M 191.5,218.5 C 191.167,219.167 190.833,219.833 190.5,220.5C 188.585,220.784 186.919,220.451 185.5,219.5C 187.379,218.659 189.379,218.325 191.5,218.5 Z"/></g>
</svg>
